<?xml version="1.0" encoding="utf-8"?>
<!-- Generator: Adobe Illustrator 16.0.0, SVG Export Plug-In . SVG Version: 6.00 Build 0)  -->
<!DOCTYPE svg PUBLIC "-//W3C//DTD SVG 1.1//EN" "http://www.w3.org/Graphics/SVG/1.1/DTD/svg11.dtd">
<svg version="1.1" id="Layer_1" xmlns="http://www.w3.org/2000/svg" xmlns:xlink="http://www.w3.org/1999/xlink" x="0px" y="0px"
	 width="245px" height="245px" viewBox="0 0 245 245" enable-background="new 0 0 245 245" xml:space="preserve">
<rect fill-rule="evenodd" clip-rule="evenodd" fill="#2E2E2C" width="245" height="245"/>
<path fill="#F7DF1E" d="M221,0c0,0-60.403,37.403-62.107,35.699S190,0,190,0h-10c0,0-52.959,46.982-59.565,52.814
	c-0.856,0.756-2.458,2.21-3.827,0.841s-0.054-3.2,0.71-4.189C126.871,37.09,152.08,4.18,155,0c-1.334,0-4,0-4,0
	s-46.692,44.88-60.767,59.018c-17.312,17.39-18.405,37.672-3.244,56.858c3.371,4.265,6.07,9.081,8.852,13.777
	c0.807,1.362,1.016,3.171,1.175,4.807c0.74,7.579-0.845,9.262-8.517,8.747c-11.693-0.785-23.24-0.339-34.551,3.115
	c-8.955,2.734-16.606,7.546-23.11,14.207c-1.146,1.174-2.758,2.69-2.759,4.051c-0.008,7.635-6.208,10.321-10.783,14.402
	c-4.627,4.13-7.408,9.473-5.808,15.595c1.696,6.491,5.809,11.634,11.837,15.005c0.567-0.727,0.975-1.018,0.938-1.235
	c-1.399-8.388,4.66-10.185,10.624-12.042c3.938-1.226,7.851-3.172,11.854-3.403c6.178-0.356,10.603,3.997,14.077,8.375
	c4.3,5.419,7.143,12.019,11.571,17.308c3.7,4.42,3.752,8.986,3.423,14.004C75.54,236.725,75,245,75,245h170V0H221z M151,200.81
	c0,20.379-11.907,29.653-29.43,29.653c-15.835,0-24.956-8.154-29.619-17.977l16.123-9.698c3.107,5.485,5.735,10.123,12.529,10.123
	c6.496,0,10.397-2.531,10.397-12.367V134h20V200.81z M197.229,230.5c-18.365,0-30.23-8.71-36.037-20.126l16.072-9.292
	c4.238,6.888,9.754,11.951,19.508,11.951c8.195,0,13.43-4.075,13.43-9.707c0-6.749-5.379-9.139-14.398-13.065l-4.943-2.11
	c-14.271-6.05-23.752-13.63-23.752-29.654c0-14.76,11.301-25.996,28.963-25.996c12.574,0,21.613,4.354,28.127,15.757l-15.398,9.841
	c-3.393-6.051-7.051-8.434-12.729-8.434c-5.793,0-9.465,3.656-9.465,8.434c0,5.904,3.676,8.295,12.16,11.951l4.943,2.107
	C220.514,179.327,230,186.638,230,203.073C230,220.793,216.014,230.5,197.229,230.5z"/>
</svg>
